# xmcd CD database file
#
# Track frame offsets:
#	150
#	12702
#	23466
#	36666
#	51534
#	63588
#	83187
#	107077
#	113333
#	125623
#	138474
#	154973
#	170445
#	188841
#	200776
#	219921
#
# Disc length: 3105 seconds
#
# Revision: 0
# Processed by: cddbd v1.5.1PL0 Copyright (c) Steve Scherf et al.
# Submitted via: CDex 1.51
#
DISCID=ea0c1f10
DTITLE=Moreno - Le fils du vent
DYEAR=2003
DGENRE=Jazz
TTITLE0=O Welto
TTITLE1=Seul a Paris
TTITLE2=Valse a Dora
TTITLE3=Swing a Bellevue
TTITLE4=Begin the Beguine
TTITLE5=Tchavolo Swing
TTITLE6=Manoir de mes Reves
TTITLE7=Du Dja Yal
TTITLE8=Hans'chie Swing
TTITLE9=David
TTITLE10=The Man I Love
TTITLE11=Pharaon
TTITLE12=Americano
TTITLE13=Le Fils du Vent
TTITLE14=Sheik of Araby
TTITLE15=Moreno
EXTD=YEAR: 2003
EXTT0=
EXTT1=
EXTT2=
EXTT3=
EXTT4=
EXTT5=
EXTT6=
EXTT7=
EXTT8=
EXTT9=
EXTT10=
EXTT11=
EXTT12=
EXTT13=
EXTT14=
EXTT15=
PLAYORDER=
